<?xml version="1.0" encoding="utf-8" standalone="no"?>
<!DOCTYPE svg PUBLIC "-//W3C//DTD SVG 1.1//EN"
  "http://www.w3.org/Graphics/SVG/1.1/DTD/svg11.dtd">
<svg xmlns:xlink="http://www.w3.org/1999/xlink" width="981.083653pt" height="981.055944pt" viewBox="0 0 981.083653 981.055944" xmlns="http://www.w3.org/2000/svg" version="1.1">
 <metadata>
  <rdf:RDF xmlns:dc="http://purl.org/dc/elements/1.1/" xmlns:cc="http://creativecommons.org/ns#" xmlns:rdf="http://www.w3.org/1999/02/22-rdf-syntax-ns#">
   <cc:Work>
    <dc:type rdf:resource="http://purl.org/dc/dcmitype/StillImage"/>
    <dc:date>2024-08-11T19:31:31.674588</dc:date>
    <dc:format>image/svg+xml</dc:format>
    <dc:creator>
     <cc:Agent>
      <dc:title>Matplotlib v3.9.1, https://matplotlib.org/</dc:title>
     </cc:Agent>
    </dc:creator>
   </cc:Work>
  </rdf:RDF>
 </metadata>
 <defs>
  <style type="text/css">*{stroke-linejoin: round; stroke-linecap: butt}</style>
 </defs>
 <g id="figure_1">
  <g id="patch_1">
   <path d="M 0 981.055944 
L 981.083653 981.055944 
L 981.083653 0 
L 0 0 
L 0 981.055944 
z
" style="fill: none"/>
  </g>
  <g id="axes_1">
   <g id="line2d_1">
    <path d="M 925.555615 495.433252 
L 925.364591 482.725989 
L 924.791691 470.030209 
L 923.837433 457.357387 
L 922.50268 444.718975 
L 920.788637 432.126394 
L 918.696854 419.591025 
L 916.229221 407.124197 
L 913.387968 394.737175 
L 910.175663 382.441154 
L 906.595208 370.247247 
L 902.649841 358.166473 
L 898.343125 346.209749 
L 893.678954 334.387883 
L 888.661542 322.711556 
L 883.295423 311.191321 
L 877.585448 299.83759 
L 871.536775 288.660623 
L 865.154873 277.670521 
L 858.445507 266.877215 
L 851.414743 256.290461 
L 844.068932 245.919824 
L 836.414714 235.774679 
L 828.459007 225.864192 
L 820.208999 216.19732 
L 811.672147 206.7828 
L 802.856166 197.62914 
L 793.769022 188.744611 
L 784.418928 180.137244 
L 774.814334 171.814816 
L 764.96392 163.784849 
L 754.876588 156.054599 
L 744.561453 148.631053 
L 734.027839 141.52092 
L 723.285264 134.730625 
L 712.343436 128.266304 
L 701.212245 122.1338 
L 689.901749 116.338655 
L 678.42217 110.886105 
L 666.783882 105.781079 
L 654.997404 101.02819 
L 643.073386 96.631733 
L 631.022606 92.595681 
L 618.855952 88.923682 
L 606.584422 85.619054 
L 594.219104 82.684784 
L 581.771173 80.123524 
L 569.251879 77.937588 
L 556.672537 76.128952 
L 544.044513 74.699249 
L 531.379221 73.649773 
L 518.688106 72.981472 
L 505.982637 72.694949 
L 493.274297 72.790464 
L 480.57457 73.26793 
L 467.894934 74.126916 
L 455.246847 75.366645 
L 442.64174 76.985997 
L 430.091004 78.983509 
L 417.605981 81.357376 
L 405.197955 84.105451 
L 392.878139 87.225252 
L 380.657667 90.71396 
L 368.547581 94.56842 
L 356.558828 98.785151 
L 344.70224 103.360341 
L 332.988534 108.289856 
L 321.428295 113.56924 
L 310.03197 119.193723 
L 298.809859 125.158222 
L 287.772102 131.457346 
L 276.928676 138.085402 
L 266.289379 145.036402 
L 255.863827 152.304062 
L 245.661441 159.881816 
L 235.691441 167.762815 
L 225.962838 175.939936 
L 216.484424 184.40579 
L 207.264763 193.152726 
L 198.312189 202.17284 
L 189.634792 211.457979 
L 181.240414 220.999753 
L 173.136641 230.789538 
L 165.330797 240.818487 
L 157.829935 251.077537 
L 150.640835 261.557417 
L 143.769994 272.248654 
L 137.22362 283.141589 
L 131.007631 294.226376 
L 125.127643 305.492998 
L 119.58897 316.931273 
L 114.396618 328.530864 
L 109.555279 340.281288 
L 105.069329 352.171926 
L 100.942821 364.192033 
L 97.179485 376.330745 
L 93.782722 388.577093 
L 90.755601 400.920008 
L 88.100858 413.348338 
L 85.820892 425.850849 
L 83.917764 438.416243 
L 82.393194 451.033165 
L 81.248559 463.690212 
L 80.484894 476.375946 
L 80.102889 489.078902 
L 80.102889 501.787601 
L 80.484894 514.490558 
L 81.248559 527.176292 
L 82.393194 539.833339 
L 83.917764 552.450261 
L 85.820892 565.015655 
L 88.100858 577.518166 
L 90.755601 589.946495 
L 93.782722 602.289411 
L 97.179485 614.535759 
L 100.942821 626.674471 
L 105.069329 638.694577 
L 109.555279 650.585216 
L 114.396618 662.33564 
L 119.58897 673.935231 
L 125.127643 685.373506 
L 131.007631 696.640128 
L 137.22362 707.724915 
L 143.769994 718.617849 
L 150.640835 729.309087 
L 157.829935 739.788967 
L 165.330797 750.048017 
L 173.136641 760.076966 
L 181.240414 769.866751 
L 189.634792 779.408525 
L 198.312189 788.693664 
L 207.264763 797.713777 
L 216.484424 806.460714 
L 225.962838 814.926568 
L 235.691441 823.103689 
L 245.661441 830.984688 
L 255.863827 838.562441 
L 266.289379 845.830102 
L 276.928676 852.781101 
L 287.772102 859.409158 
L 298.809859 865.708282 
L 310.03197 871.672781 
L 321.428295 877.297264 
L 332.988534 882.576648 
L 344.70224 887.506163 
L 356.558828 892.081353 
L 368.547581 896.298083 
L 380.657667 900.152544 
L 392.878139 903.641252 
L 405.197955 906.761053 
L 417.605981 909.509128 
L 430.091004 911.882995 
L 442.64174 913.880507 
L 455.246847 915.499859 
L 467.894934 916.739588 
L 480.57457 917.598574 
L 493.274297 918.07604 
L 505.982637 918.171555 
L 518.688106 917.885032 
L 531.379221 917.216731 
L 544.044513 916.167254 
L 556.672537 914.737552 
L 569.251879 912.928916 
L 581.771173 910.74298 
L 594.219104 908.181719 
L 606.584422 905.24745 
L 618.855952 901.942822 
L 631.022606 898.270823 
L 643.073386 894.234771 
L 654.997404 889.838314 
L 666.783882 885.085425 
L 678.42217 879.980399 
L 689.901749 874.527849 
L 701.212245 868.732704 
L 712.343436 862.6002 
L 723.285264 856.135879 
L 734.027839 849.345584 
L 744.561453 842.23545 
L 754.876588 834.811905 
L 764.96392 827.081655 
L 774.814334 819.051688 
L 784.418928 810.72926 
L 793.769022 802.121893 
L 802.856166 793.237364 
L 811.672147 784.083703 
L 820.208999 774.669183 
L 828.459007 765.002312 
L 836.414714 755.091825 
L 844.068932 744.94668 
L 851.414743 734.576043 
L 858.445507 723.989289 
L 865.154873 713.195983 
L 871.536775 702.205881 
L 877.585448 691.028914 
L 883.295423 679.675182 
L 888.661542 668.154948 
L 893.678954 656.478621 
L 898.343125 644.656755 
L 902.649841 632.700031 
L 906.595208 620.619257 
L 910.175663 608.42535 
L 913.387968 596.129329 
L 916.229221 583.742307 
L 918.696854 571.275479 
L 920.788637 558.74011 
L 922.50268 546.147529 
L 923.837433 533.509117 
L 924.791691 520.836295 
L 925.364591 508.140515 
L 925.555615 495.433252 
L 925.555615 495.433252 
" clip-path="url(#p6119074cdf)" style="fill: none; stroke: #1f77b4; stroke-width: 2; stroke-linecap: square"/>
   </g>
  </g>
 </g>
 <defs>
  <clipPath id="p6119074cdf">
   <rect x="37.780106" y="30.421119" width="930.050534" height="930.024266"/>
  </clipPath>
 </defs>
</svg>
